<?xml version="1.0" encoding="UTF-8"?><svg xmlns="http://www.w3.org/2000/svg" width="1024" height="1024" xmlns:xlink="http://www.w3.org/1999/xlink" viewBox="0 0 1024 1024"><defs><radialGradient id="b" cx="511.66" cy="540.88" fx="511.66" fy="540.88" r="254.73" gradientTransform="translate(364.39 1051.89) rotate(-89.75) scale(1 .27)" gradientUnits="userSpaceOnUse"><stop offset="0" stop-color="#4d6bb3"/><stop offset=".21" stop-color="#3d5ba1"/><stop offset=".49" stop-color="#2d4a8f"/><stop offset=".5" stop-color="#2c498d"/><stop offset=".69" stop-color="#223872"/><stop offset=".87" stop-color="#1c2e61"/><stop offset=".99" stop-color="#1a2b5c"/></radialGradient><radialGradient id="c" cx="511.66" cy="540.88" fx="511.66" fy="540.88" r="254.73" gradientTransform="translate(767.74 1006.89) rotate(-134.75) scale(1 .27)" xlink:href="#b"/><radialGradient id="d" cx="511.67" cy="540.88" fx="511.67" fy="540.88" r="254.66" gradientTransform="translate(1021.15 689.85) rotate(-179.75) scale(1 .27)" xlink:href="#b"/><radialGradient id="e" cx="511.66" cy="540.88" fx="511.66" fy="540.88" r="254.73" gradientTransform="translate(976.14 286.51) rotate(135.25) scale(1 .27)" xlink:href="#b"/><radialGradient id="f" cx="511.66" cy="540.88" fx="511.66" fy="540.88" r="254.73" gradientTransform="translate(659.11 33.11) rotate(90.25) scale(1 .27)" xlink:href="#b"/><radialGradient id="g" cx="511.66" cy="540.88" fx="511.66" fy="540.88" r="254.73" gradientTransform="translate(255.76 78.11) rotate(45.25) scale(1 .27)" xlink:href="#b"/><radialGradient id="h" cx="511.67" cy="540.88" fx="511.67" fy="540.88" r="254.66" gradientTransform="translate(2.35 395.15) rotate(.25) scale(1 .27)" xlink:href="#b"/><radialGradient id="i" cx="511.66" cy="540.88" fx="511.66" fy="540.88" r="254.73" gradientTransform="translate(47.36 798.49) rotate(-44.75) scale(1 .27)" xlink:href="#b"/></defs><g isolation="isolate"><g id="a"><g mix-blend-mode="screen"><path d="M511.85,541.76c-45.84-67.68-65.53-136.38-58.08-163.8,2.14-8.73,8.1-22.87,11.99-29.69,4.86-8.57,9.5-13.94,14.87-20.16,2.84-3.29,5.78-6.7,9.06-10.92,6.57-8.64,13.74-18.98,21.64-35.99.21-.47.41-.92.57-1.34.07-.18.13-.36.18-.54,0,.02.02.04.03.06,7.41,17.13,14.71,27.37,22.15,37.19,3.26,4.21,6.18,7.6,9.01,10.89,5.35,6.21,9.98,11.58,14.81,20.13,3.47,6.17,9.69,20.43,11.94,29.62,3.89,13.37.61,37.54-8.99,66.34-10.55,31.64-28.01,66.49-49.19,98.19Z" fill="url(#b)"/><path d="M512.13,280.66c7.28,16.55,14.44,26.58,21.75,36.23,3.26,4.21,6.19,7.61,9.03,10.9,5.34,6.19,9.95,11.54,14.75,20.05,3.45,6.14,9.65,20.34,11.9,29.54,3.86,13.25.58,37.31-8.99,66.02-10.47,31.39-27.75,65.95-48.71,97.45-27.2-40.29-41.59-75.1-48.89-97.29-9.22-28.02-12.39-51.88-8.69-65.5,2.09-8.54,8.14-22.89,11.94-29.55,4.83-8.53,9.46-13.88,14.81-20.08,2.85-3.3,5.79-6.71,9.08-10.94,6.59-8.66,13.77-19.03,21.7-36.08.11-.23.22-.49.33-.75M511.97,278.16c-.17,0-.24.78-.53,1.52-.15.41-.35.85-.56,1.31-7.68,16.52-14.58,26.68-21.58,35.89-9.5,12.24-16.53,18.01-23.97,31.14-3.74,6.54-9.85,20.86-12.04,29.81-7.21,26.53,10.95,94.72,58.46,164.67l.17.05c46.44-69.32,66.27-139.09,58.59-165.45-2.19-8.96-8.27-23.13-11.99-29.75-7.4-13.09-14.4-18.87-23.86-31.07-7.14-9.43-14.62-19.81-22.1-37.11-.19-.4-.27-.72-.59-1.01,0,0,0,0,0,0h0Z" fill="#01040d"/><path d="M512.09,279.32s.01.03.02.05c7.42,17.15,14.72,27.39,22.16,37.21,3.26,4.2,6.18,7.6,9.01,10.88,5.35,6.21,9.98,11.58,14.81,20.13,3.47,6.17,9.69,20.42,11.94,29.65,3.89,13.35.61,37.52-9,66.32-10.55,31.64-28.01,66.49-49.19,98.19-45.84-67.67-65.53-136.38-58.07-163.81,2.14-8.72,8.09-22.86,11.99-29.68,4.86-8.57,9.5-13.94,14.87-20.16,2.84-3.29,5.78-6.7,9.06-10.92,6.57-8.64,13.74-18.98,21.64-35.99.19-.41.4-.89.57-1.33.07-.19.13-.37.18-.54M511.97,278.16c-.17,0-.24.78-.53,1.52-.15.41-.35.85-.56,1.31-7.68,16.52-14.58,26.68-21.58,35.89-9.5,12.24-16.53,18.01-23.97,31.14-3.74,6.54-9.85,20.86-12.04,29.81-7.21,26.53,10.95,94.72,58.46,164.67l.17.05c46.44-69.32,66.27-139.09,58.59-165.45-2.19-8.96-8.27-23.13-11.99-29.75-7.4-13.09-14.4-18.87-23.86-31.07-7.14-9.43-14.62-19.81-22.1-37.11-.19-.4-.27-.73-.59-1.01,0,0,0,0,0,0h0Z" fill="#4d6bb3"/></g><g mix-blend-mode="screen"><path d="M511.29,541.9c-80.26-15.44-142.77-50.1-156.89-74.76-4.66-7.68-10.45-21.89-12.51-29.47-2.63-9.5-3.14-16.58-3.74-24.77-.32-4.34-.65-8.82-1.31-14.12-1.47-10.76-3.71-23.14-10.15-40.75-.18-.48-.36-.94-.55-1.35-.08-.18-.16-.35-.25-.51.02,0,.04.02.06.02,17.35,6.87,29.75,8.95,41.96,10.63,5.28.67,9.75,1,14.07,1.33,8.18.61,15.24,1.13,24.71,3.76,6.81,1.91,21.29,7.59,29.39,12.5,12.2,6.7,26.98,26.11,40.55,53.27,14.91,29.83,27.21,66.82,34.65,104.21Z" fill="url(#c)"/><path d="M326.86,357.08c16.85,6.55,29.01,8.59,41,10.24,5.29.67,9.76,1.01,14.09,1.33,8.15.61,15.2,1.13,24.61,3.75,6.79,1.9,21.2,7.56,29.3,12.47,12.1,6.64,26.8,25.98,40.33,53.04,14.8,29.6,27.01,66.25,34.46,103.36-47.72-9.26-82.52-23.7-103.37-34.22-26.33-13.29-45.45-27.93-52.46-40.17-4.56-7.52-10.43-21.94-12.45-29.34-2.61-9.44-3.13-16.5-3.73-24.68-.32-4.34-.65-8.84-1.32-14.16-1.47-10.78-3.72-23.2-10.17-40.86-.09-.24-.19-.5-.29-.76M325.09,355.42s-.06,0-.09,0c-.14.11.37.72.69,1.46.18.4.36.85.53,1.32,6.25,17.11,8.56,29.18,10.12,40.64,1.94,15.37,1.05,24.43,5.07,38.97,1.98,7.26,7.78,21.71,12.56,29.59,13.66,23.85,74.72,59.23,157.78,75.1l.16-.08c-16.17-81.85-51.49-145.21-75.56-158.43-7.88-4.78-22.21-10.51-29.51-12.56-14.49-4.03-23.53-3.16-38.84-5.1-11.72-1.61-24.35-3.67-41.86-10.61-.39-.14-.66-.3-1.04-.3h0Z" fill="#01040d"/><path d="M325.89,356.17s.03.01.05.02c17.37,6.88,29.77,8.96,41.98,10.64,5.28.67,9.74,1,14.07,1.32,8.18.61,15.24,1.13,24.71,3.76,6.81,1.91,21.29,7.59,29.41,12.52,12.18,6.69,26.96,26.1,40.54,53.26,14.91,29.83,27.21,66.82,34.65,104.21-80.26-15.44-142.77-50.1-156.9-74.77-4.65-7.67-10.44-21.88-12.51-29.47-2.63-9.49-3.14-16.57-3.74-24.77-.32-4.34-.65-8.82-1.31-14.13-1.46-10.76-3.71-23.14-10.15-40.75-.16-.42-.34-.91-.54-1.34-.08-.18-.17-.35-.26-.51M325.09,355.42s-.06,0-.09,0c-.14.11.37.72.69,1.46.18.4.36.85.53,1.32,6.25,17.11,8.56,29.18,10.12,40.64,1.94,15.37,1.05,24.43,5.07,38.97,1.98,7.26,7.78,21.71,12.56,29.59,13.66,23.85,74.72,59.23,157.78,75.1l.16-.08c-16.17-81.85-51.49-145.21-75.56-158.43-7.88-4.78-22.21-10.51-29.51-12.56-14.49-4.03-23.53-3.16-38.84-5.1-11.72-1.61-24.35-3.67-41.86-10.61-.39-.14-.66-.3-1.04-.3h0Z" fill="#4d6bb3"/></g><g mix-blend-mode="screen"><path d="M360.62,601.99c-5.22,0-9.73-.51-13.41-1.51-8.73-2.14-22.87-8.1-29.69-11.99-8.57-4.86-13.94-9.5-20.16-14.87-3.29-2.84-6.7-5.78-10.92-9.06-8.65-6.57-18.99-13.74-35.99-21.64-.47-.21-.92-.41-1.34-.57-.18-.07-.36-.13-.54-.18.02,0,.04-.02.06-.03,17.13-7.41,27.37-14.71,37.19-22.15,4.21-3.26,7.6-6.18,10.89-9.01,6.21-5.35,11.58-9.98,20.13-14.81,6.17-3.47,20.42-9.69,29.62-11.94,3.64-1.06,8.13-1.6,13.37-1.6,30.75,0,89.37,18.49,151.17,59.77-60.76,41.15-119.29,59.58-150.39,59.58Z" fill="url(#d)"/><path d="M359.84,483.13c16.61,0,39.84,5.35,65.41,15.06,28.09,10.67,57.4,25.94,84.85,44.22-60.46,40.8-118.57,59.08-149.49,59.08-5.17,0-9.64-.5-13.3-1.5-8.54-2.09-22.89-8.14-29.55-11.94-8.53-4.83-13.88-9.46-20.08-14.81-3.3-2.85-6.71-5.79-10.94-9.08-8.66-6.59-19.03-13.77-36.08-21.7-.23-.11-.49-.22-.75-.33,16.55-7.28,26.58-14.44,36.23-21.75,4.21-3.26,7.61-6.19,10.9-9.03,6.19-5.34,11.54-9.95,20.05-14.75,6.14-3.45,20.34-9.65,29.54-11.9,3.58-1.04,8.02-1.57,13.21-1.57h0M359.84,482.13c-5.26,0-9.8.54-13.49,1.61-8.96,2.19-23.13,8.27-29.75,11.99-13.09,7.4-18.87,14.4-31.07,23.86-9.43,7.14-19.81,14.62-37.11,22.1-.4.19-.72.27-1.01.59-.02.18.77.25,1.52.54.41.15.85.35,1.31.56,16.52,7.68,26.68,14.58,35.89,21.58,12.24,9.5,18.01,16.53,31.14,23.97,6.54,3.74,20.86,9.85,29.81,12.04,3.73,1.01,8.27,1.52,13.54,1.52,32.19,0,91.01-19.15,151.14-59.99l.05-.17c-59.62-39.95-119.58-60.21-151.96-60.2h0Z" fill="#01040d"/><path d="M359.84,482.63c16.67,0,39.96,5.36,65.59,15.09,28.33,10.76,57.91,26.2,85.57,44.68-60.76,41.15-119.29,59.58-150.39,59.58-5.22,0-9.73-.51-13.42-1.51-8.72-2.14-22.86-8.09-29.68-11.99-8.57-4.86-13.94-9.5-20.16-14.87-3.29-2.84-6.7-5.78-10.92-9.06-8.64-6.57-18.98-13.74-35.99-21.64-.41-.19-.89-.4-1.33-.57-.19-.07-.37-.13-.54-.18.02,0,.03-.01.05-.02,17.15-7.42,27.39-14.72,37.21-22.16,4.2-3.26,7.6-6.18,10.88-9.01,6.21-5.35,11.58-9.98,20.13-14.81,6.17-3.47,20.42-9.69,29.65-11.94,3.62-1.05,8.11-1.59,13.35-1.59h0M359.84,482.13c-5.26,0-9.8.54-13.49,1.61-8.96,2.19-23.13,8.27-29.75,11.99-13.09,7.4-18.87,14.4-31.07,23.86-9.43,7.14-19.81,14.62-37.11,22.1-.4.19-.72.27-1.01.59-.02.18.77.25,1.52.54.41.15.85.35,1.31.56,16.52,7.68,26.68,14.58,35.89,21.58,12.24,9.5,18.01,16.53,31.14,23.97,6.54,3.74,20.86,9.85,29.81,12.04,3.73,1.01,8.27,1.52,13.54,1.52,32.19,0,91.01-19.15,151.14-59.99l.05-.17c-59.62-39.95-119.58-60.21-151.96-60.2h0Z" fill="#4d6bb3"/></g><g mix-blend-mode="screen"><path d="M325.44,728.29c6.87-17.36,8.95-29.75,10.63-41.96.67-5.28,1-9.75,1.33-14.07.61-8.18,1.13-15.24,3.76-24.71,1.91-6.81,7.59-21.29,12.5-29.39,6.7-12.2,26.11-26.98,53.27-40.55,29.83-14.91,66.82-27.21,104.21-34.65-15.44,80.26-50.1,142.77-74.76,156.89-7.69,4.66-21.9,10.45-29.47,12.51-9.5,2.63-16.58,3.14-24.78,3.74-4.34.32-8.82.65-14.12,1.31-10.76,1.47-23.14,3.71-40.75,10.15-.48.18-.94.36-1.35.55-.18.08-.35.16-.51.25l.02-.06Z" fill="url(#e)"/><path d="M510.52,543.59c-9.26,47.72-23.7,82.52-34.22,103.37-13.29,26.33-27.93,45.45-40.17,52.46-7.52,4.56-21.94,10.43-29.34,12.45-9.44,2.61-16.5,3.13-24.68,3.73-4.34.32-8.84.65-14.16,1.32-10.78,1.47-23.2,3.72-40.86,10.17-.24.09-.5.19-.76.29,6.55-16.85,8.59-29.01,10.24-41,.67-5.29,1.01-9.76,1.33-14.09.61-8.15,1.13-15.19,3.75-24.61,1.9-6.79,7.56-21.2,12.47-29.3,6.64-12.1,25.98-26.8,53.04-40.33,29.6-14.8,66.25-27.01,103.36-34.46M511.67,542.35c-81.85,16.17-145.21,51.49-158.43,75.56-4.78,7.88-10.51,22.21-12.56,29.51-4.03,14.49-3.16,23.53-5.1,38.84-1.61,11.72-3.67,24.35-10.61,41.86-.15.42-.32.7-.3,1.13.01.02.03.02.06.02.19,0,.74-.43,1.4-.72.4-.18.85-.36,1.32-.53,17.11-6.25,29.18-8.56,40.64-10.12,15.37-1.94,24.43-1.05,38.97-5.07,7.26-1.98,21.71-7.78,29.59-12.56,23.85-13.66,59.23-74.72,75.1-157.78l-.08-.15h0Z" fill="#01040d"/><path d="M511.15,542.96c-15.44,80.26-50.1,142.77-74.77,156.9-7.67,4.65-21.88,10.44-29.47,12.51-9.49,2.63-16.57,3.14-24.77,3.74-4.34.32-8.82.65-14.13,1.31-10.76,1.46-23.14,3.71-40.75,10.15-.42.16-.91.34-1.34.54-.18.08-.35.17-.51.26,0-.02.01-.03.02-.05,6.88-17.37,8.96-29.77,10.64-41.99.67-5.28,1-9.74,1.32-14.07.61-8.18,1.13-15.24,3.76-24.71,1.91-6.81,7.59-21.29,12.52-29.41,6.69-12.18,26.1-26.96,53.26-40.54,29.83-14.91,66.82-27.21,104.21-34.65M511.67,542.35c-81.85,16.17-145.21,51.49-158.43,75.56-4.78,7.88-10.51,22.21-12.56,29.51-4.03,14.49-3.16,23.53-5.1,38.84-1.61,11.72-3.67,24.35-10.61,41.86-.15.42-.32.7-.3,1.13.01.02.03.02.06.02.19,0,.74-.43,1.4-.72.4-.18.85-.36,1.32-.53,17.11-6.25,29.18-8.56,40.64-10.12,15.37-1.94,24.43-1.05,38.97-5.07,7.26-1.98,21.71-7.78,29.59-12.56,23.85-13.66,59.23-74.72,75.1-157.78l-.08-.15h0Z" fill="#4d6bb3"/></g><g mix-blend-mode="screen"><path d="M511.39,805.62c-7.41-17.13-14.71-27.37-22.15-37.19-3.26-4.21-6.18-7.6-9.01-10.89-5.35-6.21-9.98-11.58-14.81-20.13-3.47-6.17-9.69-20.42-11.94-29.62-3.89-13.37-.61-37.54,8.99-66.34,10.55-31.64,28.01-66.49,49.19-98.19,45.84,67.67,65.53,136.38,58.08,163.8-2.14,8.73-8.1,22.87-12,29.69-4.86,8.57-9.5,13.95-14.87,20.17-2.84,3.29-5.78,6.69-9.06,10.91-6.57,8.65-13.74,18.99-21.64,35.99-.21.47-.41.92-.57,1.34-.07.18-.13.36-.18.53,0-.02-.02-.04-.03-.06Z" fill="url(#f)"/><path d="M511.66,544.14c27.2,40.29,41.59,75.1,48.89,97.29,9.22,28.02,12.39,51.88,8.69,65.5-2.09,8.54-8.14,22.89-11.94,29.55-4.83,8.53-9.46,13.88-14.81,20.08-2.85,3.3-5.79,6.71-9.08,10.94-6.59,8.66-13.77,19.03-21.7,36.08-.11.23-.22.49-.33.75-7.28-16.55-14.44-26.58-21.75-36.23-3.26-4.21-6.19-7.61-9.03-10.9-5.34-6.19-9.95-11.54-14.75-20.05-3.45-6.14-9.65-20.34-11.9-29.54-3.86-13.25-.58-37.32,8.99-66.03,10.47-31.39,27.74-65.95,48.71-97.45M511.58,542.45c-46.44,69.32-66.27,139.09-58.59,165.45,2.19,8.96,8.27,23.13,11.99,29.75,7.4,13.09,14.4,18.87,23.86,31.07,7.14,9.43,14.62,19.81,22.1,37.11.19.4.27.73.59,1.01,0,0,0,0,0,0,.17,0,.24-.78.53-1.52.15-.41.35-.85.56-1.31,7.68-16.52,14.58-26.68,21.58-35.89,9.5-12.24,16.53-18.01,23.97-31.14,3.74-6.54,9.85-20.86,12.04-29.81,7.21-26.53-10.95-94.72-58.46-164.67l-.17-.05h0Z" fill="#01040d"/><path d="M511.65,543.25c45.84,67.67,65.53,136.38,58.07,163.81-2.14,8.72-8.09,22.86-11.99,29.68-4.86,8.57-9.5,13.94-14.87,20.16-2.84,3.29-5.78,6.7-9.06,10.92-6.57,8.64-13.74,18.98-21.64,35.99-.19.41-.4.89-.57,1.33-.07.19-.13.37-.18.54,0-.02-.01-.03-.02-.05-7.42-17.15-14.72-27.39-22.16-37.21-3.26-4.2-6.18-7.6-9.01-10.88-5.35-6.21-9.98-11.58-14.81-20.13-3.47-6.17-9.69-20.42-11.94-29.65-3.89-13.35-.61-37.52,9-66.32,10.55-31.64,28.01-66.49,49.19-98.19M511.58,542.45c-46.44,69.32-66.27,139.09-58.59,165.45,2.19,8.96,8.27,23.13,11.99,29.75,7.4,13.09,14.4,18.87,23.86,31.07,7.14,9.43,14.62,19.81,22.1,37.11.19.4.27.73.59,1.01,0,0,0,0,0,0,.17,0,.24-.78.53-1.52.15-.41.35-.85.56-1.31,7.68-16.52,14.58-26.68,21.58-35.89,9.5-12.24,16.53-18.01,23.97-31.14,3.74-6.54,9.85-20.86,12.04-29.81,7.21-26.53-10.95-94.72-58.46-164.67l-.17-.05h0Z" fill="#4d6bb3"/></g><g mix-blend-mode="screen"><path d="M697.54,728.81c-17.35-6.87-29.75-8.95-41.96-10.63-5.28-.67-9.75-1-14.07-1.33-8.18-.61-15.25-1.13-24.71-3.76-6.81-1.91-21.29-7.59-29.39-12.51-12.2-6.7-26.98-26.11-40.55-53.27-14.91-29.83-27.21-66.82-34.65-104.21,80.26,15.44,142.77,50.1,156.89,74.75,4.66,7.69,10.45,21.9,12.51,29.48,2.63,9.49,3.14,16.57,3.74,24.77.32,4.34.64,8.82,1.31,14.12,1.47,10.76,3.71,23.14,10.15,40.75.18.48.36.94.54,1.35.08.18.17.35.25.51l-.06-.02Z" fill="url(#g)"/><path d="M512.84,543.73c47.72,9.26,82.52,23.7,103.37,34.22,26.33,13.29,45.45,27.93,52.46,40.17,4.56,7.52,10.43,21.94,12.45,29.34,2.61,9.44,3.13,16.5,3.73,24.68.32,4.34.65,8.84,1.32,14.16,1.47,10.78,3.72,23.2,10.17,40.86.09.24.19.5.29.76-16.85-6.55-29.01-8.59-41-10.24-5.29-.67-9.76-1.01-14.09-1.33-8.15-.61-15.2-1.13-24.61-3.75-6.79-1.9-21.2-7.56-29.3-12.47-12.1-6.64-26.8-25.98-40.33-53.04-14.8-29.6-27.01-66.25-34.46-103.36M511.75,542.5l-.16.08c16.17,81.85,51.49,145.21,75.56,158.43,7.88,4.78,22.21,10.51,29.51,12.56,14.49,4.03,23.53,3.16,38.84,5.1,11.72,1.61,24.35,3.67,41.86,10.61.39.14.66.3,1.04.3.03,0,.06,0,.09,0,.14-.11-.37-.72-.69-1.46-.18-.4-.36-.85-.53-1.32-6.25-17.11-8.56-29.18-10.12-40.64-1.94-15.37-1.05-24.43-5.07-38.97-1.98-7.26-7.78-21.71-12.56-29.59-13.66-23.85-74.72-59.23-157.78-75.1h0Z" fill="#01040d"/><path d="M512.21,543.1c80.26,15.44,142.77,50.1,156.9,74.77,4.65,7.67,10.44,21.88,12.51,29.47,2.63,9.49,3.14,16.57,3.74,24.77.32,4.34.65,8.82,1.31,14.13,1.47,10.76,3.71,23.14,10.15,40.75.16.42.34.91.54,1.34.08.18.17.35.26.51-.02,0-.03-.01-.05-.02-17.37-6.88-29.77-8.96-41.98-10.64-5.28-.67-9.74-1-14.07-1.32-8.18-.61-15.24-1.13-24.71-3.76-6.81-1.91-21.29-7.59-29.41-12.52-12.18-6.69-26.96-26.1-40.54-53.26-14.91-29.83-27.21-66.82-34.65-104.21M511.75,542.5l-.16.08c16.17,81.85,51.49,145.21,75.56,158.43,7.88,4.78,22.21,10.51,29.51,12.56,14.49,4.03,23.53,3.16,38.84,5.1,11.72,1.61,24.35,3.67,41.86,10.61.39.14.66.3,1.04.3.03,0,.06,0,.09,0,.14-.11-.37-.72-.69-1.46-.18-.4-.36-.85-.53-1.32-6.25-17.11-8.56-29.18-10.12-40.64-1.94-15.37-1.05-24.43-5.07-38.97-1.98-7.26-7.78-21.71-12.56-29.59-13.66-23.85-74.72-59.23-157.78-75.1h0Z" fill="#4d6bb3"/></g><g mix-blend-mode="screen"><path d="M663.66,602.37c-30.75,0-89.37-18.49-151.16-59.77,60.76-41.15,119.29-59.58,150.39-59.58,5.22,0,9.73.51,13.41,1.51,8.73,2.14,22.87,8.1,29.69,11.99,8.57,4.86,13.94,9.5,20.16,14.87,3.29,2.84,6.7,5.78,10.92,9.06,8.65,6.57,18.99,13.74,35.99,21.64.47.21.92.41,1.34.57.18.07.36.13.54.18-.02,0-.04.02-.06.03-17.13,7.41-27.37,14.71-37.19,22.15-4.21,3.26-7.6,6.18-10.88,9.01-6.21,5.36-11.58,9.98-20.14,14.81-6.17,3.47-20.42,9.69-29.62,11.94-3.64,1.06-8.13,1.59-13.37,1.59Z" fill="url(#h)"/><path d="M662.89,482.52v1h0c5.17,0,9.63.5,13.29,1.5,8.54,2.09,22.89,8.14,29.55,11.94,8.53,4.83,13.88,9.46,20.08,14.81,3.3,2.85,6.71,5.79,10.94,9.08,8.66,6.59,19.03,13.77,36.08,21.7.23.11.49.22.75.33-16.55,7.28-26.58,14.44-36.23,21.75-4.21,3.26-7.61,6.19-10.9,9.03-6.19,5.34-11.54,9.95-20.05,14.75-6.14,3.45-20.34,9.65-29.54,11.9-3.58,1.04-8.02,1.57-13.21,1.57-16.61,0-39.84-5.35-65.41-15.06-28.09-10.67-57.4-25.94-84.86-44.22,60.45-40.8,118.57-59.08,149.49-59.08v-1M662.89,482.52c-32.19,0-91.01,19.15-151.14,59.99l-.05.17c59.62,39.95,119.58,60.2,151.96,60.2,5.26,0,9.8-.54,13.49-1.61,8.96-2.19,23.13-8.27,29.75-11.99,13.09-7.4,18.87-14.4,31.07-23.86,9.43-7.14,19.81-14.62,37.11-22.1.4-.19.73-.27,1.01-.59.02-.18-.77-.25-1.52-.54-.41-.15-.85-.35-1.31-.56-16.52-7.68-26.68-14.58-35.89-21.58-12.24-9.5-18.01-16.53-31.14-23.97-6.54-3.74-20.86-9.85-29.81-12.04-3.73-1.01-8.27-1.52-13.54-1.52h0Z" fill="#01040d"/><path d="M662.89,482.52v.5h0c5.21,0,9.72.51,13.41,1.51,8.72,2.14,22.86,8.09,29.68,11.99,8.57,4.86,13.94,9.5,20.16,14.87,3.29,2.84,6.7,5.78,10.92,9.06,8.64,6.57,18.98,13.74,35.99,21.64.41.19.89.4,1.33.57.19.07.37.13.54.18-.02,0-.03.01-.05.02-17.15,7.42-27.39,14.72-37.21,22.16-4.2,3.26-7.6,6.18-10.88,9.01-6.21,5.35-11.58,9.98-20.13,14.81-6.17,3.47-20.42,9.69-29.65,11.94-3.62,1.05-8.11,1.59-13.35,1.59-16.67,0-39.96-5.36-65.59-15.09-28.34-10.76-57.91-26.2-85.58-44.68,60.76-41.15,119.28-59.58,150.39-59.58v-.5M662.89,482.52c-32.19,0-91.01,19.15-151.14,59.99l-.05.17c59.62,39.95,119.58,60.2,151.96,60.2,5.26,0,9.8-.54,13.49-1.61,8.96-2.19,23.13-8.27,29.75-11.99,13.09-7.4,18.87-14.4,31.07-23.86,9.43-7.14,19.81-14.62,37.11-22.1.4-.19.73-.27,1.01-.59.02-.18-.77-.25-1.52-.54-.41-.15-.85-.35-1.31-.56-16.52-7.68-26.68-14.58-35.89-21.58-12.24-9.5-18.01-16.53-31.14-23.97-6.54-3.74-20.86-9.85-29.81-12.04-3.73-1.01-8.27-1.52-13.54-1.52h0Z" fill="#4d6bb3"/></g><g mix-blend-mode="screen"><path d="M512.35,542.04c15.44-80.26,50.1-142.77,74.76-156.89,7.68-4.66,21.89-10.45,29.47-12.51,9.49-2.63,16.58-3.14,24.77-3.74,4.34-.32,8.82-.65,14.12-1.31,10.76-1.47,23.14-3.71,40.75-10.15.48-.18.94-.36,1.35-.55.18-.08.35-.16.5-.25,0,.02-.01.04-.02.06-6.88,17.36-8.95,29.75-10.63,41.96-.67,5.28-1,9.75-1.33,14.07-.61,8.18-1.13,15.25-3.76,24.71-1.91,6.81-7.59,21.29-12.51,29.39-6.7,12.2-26.11,26.98-53.27,40.55-29.83,14.91-66.82,27.21-104.21,34.65Z" fill="url(#i)"/><path d="M697.17,357.61c-6.55,16.85-8.59,29.01-10.24,41-.67,5.29-1.01,9.76-1.33,14.09-.61,8.15-1.13,15.19-3.75,24.61-1.9,6.79-7.56,21.2-12.47,29.3-6.64,12.1-25.98,26.8-53.04,40.33-29.6,14.8-66.25,27.01-103.36,34.46,9.26-47.72,23.7-82.52,34.22-103.37,13.29-26.33,27.93-45.45,40.17-52.46,7.52-4.56,21.94-10.43,29.34-12.45,9.44-2.61,16.5-3.13,24.68-3.73,4.34-.32,8.84-.65,14.16-1.32,10.78-1.47,23.2-3.72,40.86-10.17.24-.09.5-.19.76-.29M698.77,355.73c-.19,0-.74.43-1.4.72-.4.18-.85.36-1.32.53-17.11,6.25-29.18,8.56-40.64,10.12-15.37,1.94-24.43,1.05-38.97,5.07-7.26,1.98-21.71,7.78-29.59,12.56-23.85,13.66-59.23,74.72-75.1,157.78l.08.16c81.85-16.17,145.21-51.49,158.43-75.56,4.78-7.88,10.51-22.21,12.56-29.51,4.03-14.49,3.16-23.53,5.1-38.84,1.61-11.72,3.67-24.35,10.61-41.86.15-.42.32-.7.3-1.13-.01-.02-.03-.02-.06-.02h0Z" fill="#01040d"/><path d="M698.08,356.64s-.01.03-.02.05c-6.88,17.37-8.96,29.77-10.64,41.99-.67,5.28-1,9.74-1.32,14.07-.61,8.18-1.13,15.24-3.76,24.71-1.91,6.81-7.59,21.29-12.52,29.41-6.69,12.18-26.1,26.96-53.26,40.54-29.83,14.91-66.82,27.21-104.21,34.65,15.44-80.26,50.1-142.77,74.77-156.9,7.67-4.65,21.88-10.44,29.47-12.51,9.49-2.63,16.57-3.14,24.77-3.74,4.34-.32,8.82-.65,14.13-1.31,10.76-1.47,23.14-3.71,40.75-10.15.42-.16.91-.34,1.34-.54.18-.08.35-.17.51-.26M698.77,355.73c-.19,0-.74.43-1.4.72-.4.18-.85.36-1.32.53-17.11,6.25-29.18,8.56-40.64,10.12-15.37,1.94-24.43,1.05-38.97,5.07-7.26,1.98-21.71,7.78-29.59,12.56-23.85,13.66-59.23,74.72-75.1,157.78l.08.16c81.85-16.17,145.21-51.49,158.43-75.56,4.78-7.88,10.51-22.21,12.56-29.51,4.03-14.49,3.16-23.53,5.1-38.84,1.61-11.72,3.67-24.35,10.61-41.86.15-.42.32-.7.3-1.13-.01-.02-.03-.02-.06-.02h0Z" fill="#4d6bb3"/></g></g></g></svg>